<svg xmlns="http://www.w3.org/2000/svg" width="21.234" height="17.584" viewBox="0 0 21.234 17.584"><path d="M7.952,17.584a1.377,1.377,0,0,1-1.376-1.375v-.517H.551a.55.55,0,1,1,0-1.1H6.576v-.517A1.377,1.377,0,0,1,7.952,12.7h2.136a1.377,1.377,0,0,1,1.376,1.375v.517h9.219a.55.55,0,1,1,0,1.1H11.464v.517a1.377,1.377,0,0,1-1.376,1.375Zm-.275-3.508v2.134a.275.275,0,0,0,.275.275h2.136a.275.275,0,0,0,.275-.275V14.075a.275.275,0,0,0-.275-.275H7.952A.275.275,0,0,0,7.677,14.075Zm7.337-3.067a1.377,1.377,0,0,1-1.376-1.375V9.116H.551a.55.55,0,1,1,0-1.1H13.637V7.5a1.377,1.377,0,0,1,1.376-1.375H17.15A1.377,1.377,0,0,1,18.526,7.5v.517h2.157a.55.55,0,1,1,0,1.1H18.526v.517a1.377,1.377,0,0,1-1.376,1.375ZM14.738,7.5V9.633a.275.275,0,0,0,.275.275H17.15a.275.275,0,0,0,.275-.275V7.5a.275.275,0,0,0-.275-.275H15.014A.275.275,0,0,0,14.738,7.5ZM4.084,4.882A1.377,1.377,0,0,1,2.708,3.508V2.991H.551a.55.55,0,1,1,0-1.1H2.708V1.374A1.377,1.377,0,0,1,4.084,0H6.22A1.377,1.377,0,0,1,7.6,1.374v.517H20.683a.55.55,0,1,1,0,1.1H7.6v.517A1.377,1.377,0,0,1,6.22,4.882ZM3.809,1.374V3.508a.275.275,0,0,0,.275.275H6.22A.275.275,0,0,0,6.5,3.508V1.374A.275.275,0,0,0,6.22,1.1H4.084A.275.275,0,0,0,3.809,1.374Z" transform="translate(0 0.001)" fill="#fff" opacity="0.75"/></svg>